<svg width="32" height="32" viewBox="0 0 32 32" fill="none" xmlns="http://www.w3.org/2000/svg">
<path d="M21 11H12V21H21V11Z" fill="white"/>
<path d="M29.4129 9.13364C29.0968 7.8894 28.1484 6.92166 26.929 6.59908C24.7613 6 16 6 16 6C16 6 7.23871 6 5.07097 6.59908C3.85161 6.92166 2.90323 7.8894 2.5871 9.13364C2 11.3917 2 16 2 16C2 16 2 20.6544 2.5871 22.8664C2.90323 24.1106 3.85161 25.0783 5.07097 25.4009C7.23871 26 16 26 16 26C16 26 24.7613 26 26.929 25.4009C28.1484 25.0783 29.0968 24.1106 29.4129 22.8664C30 20.6544 30 16 30 16C30 16 30 11.3917 29.4129 9.13364ZM13.2 20.2857V11.7143L20.471 16L13.2 20.2857Z" fill="#120902"/>
</svg>
