<svg width="32" height="32" viewBox="0 0 32 32" fill="none" xmlns="http://www.w3.org/2000/svg">
<path d="M25.1 8.85C25.1 9.92696 24.227 10.8 23.15 10.8C22.073 10.8 21.2 9.92696 21.2 8.85C21.2 7.77305 22.073 6.9 23.15 6.9C24.227 6.9 25.1 7.77305 25.1 8.85Z" fill="#120902"/>
<path fill-rule="evenodd" clip-rule="evenodd" d="M16 22.5C19.5899 22.5 22.5 19.5899 22.5 16C22.5 12.4101 19.5899 9.5 16 9.5C12.4101 9.5 9.5 12.4101 9.5 16C9.5 19.5899 12.4101 22.5 16 22.5ZM16 19.9C18.1539 19.9 19.9 18.1539 19.9 16C19.9 13.8461 18.1539 12.1 16 12.1C13.8461 12.1 12.1 13.8461 12.1 16C12.1 18.1539 13.8461 19.9 16 19.9Z" fill="#120902"/>
<path fill-rule="evenodd" clip-rule="evenodd" d="M3 15.48C3 11.1116 3 8.92739 3.85015 7.25887C4.59796 5.79121 5.79121 4.59796 7.25887 3.85015C8.92739 3 11.1116 3 15.48 3H16.52C20.8884 3 23.0726 3 24.7411 3.85015C26.2088 4.59796 27.402 5.79121 28.1499 7.25887C29 8.92739 29 11.1116 29 15.48V16.52C29 20.8884 29 23.0726 28.1499 24.7411C27.402 26.2088 26.2088 27.402 24.7411 28.1499C23.0726 29 20.8884 29 16.52 29H15.48C11.1116 29 8.92739 29 7.25887 28.1499C5.79121 27.402 4.59796 26.2088 3.85015 24.7411C3 23.0726 3 20.8884 3 16.52V15.48ZM15.48 5.6H16.52C18.7471 5.6 20.2611 5.60202 21.4313 5.69763C22.5712 5.79077 23.1541 5.95957 23.5608 6.16677C24.5392 6.66531 25.3347 7.46081 25.8332 8.43925C26.0404 8.84589 26.2092 9.42882 26.3024 10.5687C26.398 11.7389 26.4 13.2529 26.4 15.48V16.52C26.4 18.7471 26.398 20.2611 26.3024 21.4313C26.2092 22.5712 26.0404 23.1541 25.8332 23.5608C25.3347 24.5392 24.5392 25.3347 23.5608 25.8332C23.1541 26.0404 22.5712 26.2092 21.4313 26.3024C20.2611 26.398 18.7471 26.4 16.52 26.4H15.48C13.2529 26.4 11.7389 26.398 10.5687 26.3024C9.42882 26.2092 8.84589 26.0404 8.43925 25.8332C7.46081 25.3347 6.66531 24.5392 6.16677 23.5608C5.95957 23.1541 5.79077 22.5712 5.69763 21.4313C5.60202 20.2611 5.6 18.7471 5.6 16.52V15.48C5.6 13.2529 5.60202 11.7389 5.69763 10.5687C5.79077 9.42882 5.95957 8.84589 6.16677 8.43925C6.66531 7.46081 7.46081 6.66531 8.43925 6.16677C8.84589 5.95957 9.42882 5.79077 10.5687 5.69763C11.7389 5.60202 13.2529 5.6 15.48 5.6Z" fill="#120902"/>
</svg>
