<svg width="32" height="32" viewBox="0 0 32 32" fill="none" xmlns="http://www.w3.org/2000/svg">
<path fill-rule="evenodd" clip-rule="evenodd" d="M11.5449 10.2402C12.8264 9.45159 14.2856 8.95108 15.8486 8.83496V8.79883H16.5488C22.2064 8.79883 26.7 13.7529 26.7002 19.749C26.7002 25.7454 22.2065 30.7002 16.5488 30.7002C14.7211 30.7002 13.0161 30.1711 11.5449 29.2656V30.2139H5.2998V2.2998H11.5449V10.2402ZM15.9443 14.6475C13.3664 14.6475 11.2031 16.8915 11.2031 19.7578C11.2033 22.624 13.3665 24.8672 15.9443 24.8672C18.5222 24.8672 20.6854 22.624 20.6855 19.7578C20.6855 16.8915 18.5222 14.6475 15.9443 14.6475Z" fill="#120902"/>
</svg>
